<?xml version="1.0" standalone="no"?>
<!DOCTYPE svg PUBLIC "-//W3C//DTD SVG 20010904//EN"
 "http://www.w3.org/TR/2001/REC-SVG-20010904/DTD/svg10.dtd">
<svg version="1.0" xmlns="http://www.w3.org/2000/svg"
 width="537.000000pt" height="553.000000pt" viewBox="0 0 537.000000 553.000000"
 preserveAspectRatio="xMidYMid meet">

<g transform="translate(0.000000,553.000000) scale(0.100000,-0.100000)"
fill="#000000" stroke="none">
<path d="M2450 5206 c-124 -36 -257 -142 -307 -244 -47 -96 -30 -235 43 -345
l26 -40 -28 7 c-124 28 -144 29 -213 17 -151 -27 -295 -124 -521 -351 -216
-217 -294 -339 -322 -500 -12 -68 -6 -138 18 -219 l7 -24 -34 26 c-99 75 -237
95 -334 48 -114 -56 -228 -216 -256 -359 -84 -440 395 -1092 917 -1248 123
-36 269 -39 367 -5 129 44 246 142 294 248 36 79 30 166 -21 267 -20 41 -36
76 -36 79 0 2 24 0 53 -5 123 -23 249 8 376 92 162 106 452 394 553 549 80
123 111 267 84 400 l-8 44 33 -22 c116 -76 190 -94 281 -67 127 37 261 197
298 356 98 415 -361 1065 -894 1269 -83 31 -102 35 -211 37 -78 2 -136 -1
-165 -10z"/>
<path d="M2998 2883 c-96 -99 -237 -235 -307 -296 l-53 -47 393 -522 c217
-288 482 -639 589 -782 107 -142 231 -307 275 -366 286 -385 297 -395 440
-395 69 0 89 4 145 31 77 37 144 88 263 204 209 200 266 342 196 486 -13 28
-75 95 -182 196 -89 83 -205 193 -257 243 -52 49 -172 162 -265 250 -94 88
-246 233 -340 321 -93 88 -206 194 -250 234 -44 41 -118 111 -165 156 -47 44
-149 140 -227 213 -79 73 -145 137 -148 142 -13 20 -34 6 -107 -68z"/>
</g>
</svg>
